# 3ds Max Wavefront OBJ Exporter v0.99 - (c)2007 guruware
# File Created: 25.05.2022 14:54:28

mtllib 29 ?????????? ????????????.mtl

#
# object Box005
#

v  72.5181 -11.1308 272.2068
v  22.4810 -71.2460 243.5927
v  71.4989 43.1610 213.8072
v  22.4810 30.0116 299.4008
v  22.4810 103.7604 242.8734
v  -27.0165 1.4873 271.3369
v  22.4810 1.5297 185.6057
v  -27.0165 31.5136 214.6426
# 8 vertices

vn 0.7993 -0.3319 0.4402
vn -0.0121 -1.0767 -0.0155
vn 0.7953 0.3317 -0.4476
vn 0.0129 0.2253 0.9380
vn -0.0090 1.0765 0.0228
vn -0.8158 -0.2076 0.4694
vn 0.0157 -0.2347 -0.9361
vn -0.8161 0.2132 -0.4668
# 8 vertex normals

vt 1.0000 0.0000 0.0000
vt 1.0000 50.0000 0.0000
vt -49.0000 0.0000 0.0000
vt 0.0000 0.0000 0.0000
vt 50.0000 0.0000 0.0000
vt 0.0000 50.0000 0.0000
vt 50.0000 50.0000 0.0000
vt -49.0000 50.0000 0.0000
# 8 texture coords

o Box005
g Box005
usemtl wire_088144225
s 2
f 1/1/1 2/2/2 3/3/3 
s 4
f 4/4/4 5/5/5 6/6/6 
s 8
f 1/4/1 5/7/5 4/6/4 
s 16
f 3/4/3 7/5/7 5/6/5 
s 32
f 7/4/7 2/5/2 8/6/8 
s 64
f 2/4/2 4/7/4 6/6/6 
s 4
f 5/5/5 8/7/8 6/6/6 
s 8
f 1/4/1 3/5/3 5/7/5 
s 16
f 7/5/7 8/7/8 5/6/5 
s 2
f 2/2/2 7/8/7 3/3/3 
s 32
f 2/5/2 6/7/6 8/6/8 
s 64
f 2/4/2 1/5/1 4/7/4 
# 0 polygons - 12 triangles

